<svg xmlns="http://www.w3.org/2000/svg" xmlns:xlink="http://www.w3.org/1999/xlink" width="520" height="120" viewBox="0 0 520 120"><defs><style>.a{fill:none;}.b{clip-path:url(#a);}.c{fill:#e11f26;}.d{fill:#0a3049;}</style><clipPath id="a"><rect class="a" x="15.33" y="20.67" width="488" height="80.04"/></clipPath></defs><title>Artboard 1</title><g class="b"><path class="c" d="M18,23.33H92.7V98H18ZM15.33,100.7h80v-80h-80Z"/><g class="b"><path class="c" d="M35.42,77.49A2.77,2.77,0,0,0,39,75.84L49.32,47.43a2.77,2.77,0,0,0-5.21-1.88h0L33.76,74a2.77,2.77,0,0,0,1.65,3.55h0"/><path class="c" d="M47.67,76.06a2.77,2.77,0,0,0,2.5,1.6,2.82,2.82,0,0,0,2.6-1.83L63.13,47.42a2.77,2.77,0,1,0-5.21-1.88h0L47.56,74a2.76,2.76,0,0,0,.09,2.12"/><path class="c" d="M61.47,76.06A2.77,2.77,0,0,0,64,77.66a2.82,2.82,0,0,0,2.61-1.83L77,47.42a2.77,2.77,0,1,0-5.21-1.88h0L61.39,74a2.75,2.75,0,0,0,.09,2.12"/><path class="d" d="M306,71.84h0v-.07a13,13,0,0,0-.08-1.31v-.14q-.07-.51-.17-1a1.39,1.39,0,0,0-.08-.33v-.14l-.07-.25-.1-.35v-.07a12.67,12.67,0,0,0-1.14-2.57,12.15,12.15,0,0,0-7.53-6.34,15.2,15.2,0,0,0-2-.59L303.35,47V43.26h-21V48H297l-7.78,10.69-.26.36v3.85h4.3a10.75,10.75,0,0,1,2.43.65,6,6,0,0,1,2.16,1.21,8.72,8.72,0,0,1,3.77,7.09c0,5-4.45,9-9.94,9a11.77,11.77,0,0,1-8.86-4.23l-1,1-2.11,2.11h0l-.06.06.08.1a14.85,14.85,0,0,0,11.81,5.65c8,0,14.55-6.1,14.55-13.62h0v0"/><polygon class="d" points="116.79 43.74 117.11 43.35 122.25 43.4 122.64 43.65 131.02 68.93 131.66 71.73 132.23 69 137.88 50.06 137.88 43.86 137.88 43.74 138.2 43.35 142.71 43.4 143.02 43.72 143.02 50.64 148.3 69 148.87 71.73 149.44 68.93 157.4 43.78 157.72 43.4 162.84 43.4 163.22 43.65 150.97 77.95 150.65 78.26 146.52 78.28 146.2 77.96 140.93 59.97 140.29 57.18 139.66 59.97 134.27 77.95 133.95 78.26 129.86 78.28 129.54 77.96 116.79 43.74"/><polygon class="d" points="172.16 43.86 172.47 43.35 177.04 43.4 177.36 43.72 177.36 57.56 195.91 57.56 195.91 43.86 196.22 43.35 200.8 43.4 201.12 43.77 201.12 77.57 200.8 77.89 196.22 77.89 195.91 77.57 195.91 62.27 177.36 62.27 177.36 77.57 177.04 77.89 172.47 77.89 172.16 77.57 172.16 43.86"/><path class="d" d="M223.54,43.71l.32-.31h5.06l.31.31,12.83,33.9-.32.32h-5l-.32-.32-2.82-7.94H219.13l-2.82,7.94-.32.32h-5l-.32-.32ZM232,65.18,226.94,50.8l-.63-2.22-.57,2.22-5.08,14.42Z"/><polygon class="d" points="255.01 48.05 244.97 48.05 244.65 47.73 244.65 43.67 244.97 43.35 270.35 43.35 270.6 43.67 270.58 47.73 270.2 48.05 260.21 48.05 260.21 77.57 259.89 77.89 255.33 77.89 255.01 77.57 255.01 48.05"/><polygon class="d" points="316.42 43.74 316.74 43.35 321.88 43.4 322.25 43.65 330.64 68.93 331.28 71.73 331.85 69 337.5 50.06 337.5 43.86 337.5 43.74 337.82 43.35 342.33 43.4 342.65 43.72 342.65 50.64 347.92 69 348.49 71.73 349.06 68.93 357.02 43.78 357.34 43.4 362.47 43.4 362.85 43.65 350.59 77.95 350.27 78.26 346.13 78.28 345.82 77.96 340.55 59.97 339.92 57.18 339.29 59.97 333.88 77.95 333.56 78.26 329.48 78.28 329.17 77.96 316.42 43.74"/><path class="d" d="M368.68,55.78c0-8.26,5.85-12.7,14.55-12.7s14.55,4.44,14.55,12.7V66.07c0,8.19-5.85,12.58-14.55,12.58s-14.55-4.39-14.55-12.58Zm14.55,18.16c5.34,0,9.27-2.66,9.27-8.38V56.15c0-5.53-3.94-8.39-9.27-8.39s-9.27,2.82-9.27,8.39v9.42c0,5.72,3.94,8.38,9.27,8.38"/><path class="d" d="M410,44.16l.32-.31h9.9c6.29,0,12.7,2,12.7,9.65,0,9.78-10.36,10.23-10.36,10.23l2,1.88,5.34,5.85a5.14,5.14,0,0,0,3.77,2,8.06,8.06,0,0,0,1.21-.07l.25.32-.7,4L434,78a10.46,10.46,0,0,1-1.39.07c-3.05,0-5.72-2.29-7.43-4.26l-8.32-9.42-.44-.25h-1.27V77.57l-.32.32h-4.58l-.32-.32Zm10.16,15.43c3.77,0,7.62-1.46,7.62-5.78s-3.77-5.53-7.62-5.53h-5v11.3Z"/><path class="d" d="M445.73,44.16l.32-.31h12.38c8.64,0,14.48,4.44,14.48,12.7v8.77c0,8.26-5.85,12.58-14.48,12.58H446l-.32-.32Zm12.7,29c5.34,0,9.21-2.66,9.21-8.32V56.93c0-5.53-3.87-8.38-9.21-8.38H450.9V73.19Z"/><path class="d" d="M480.72,75l2.41-3.46.57-.07a14.12,14.12,0,0,0,7.53,2.35c3.68,0,6.8-1.39,6.8-5.34,0-7.63-16.2-4.13-16.2-15.43,0-6.22,5.15-10,11.12-10a17.53,17.53,0,0,1,9.72,2.66l.07.44-2.41,3.43-.51.07a11.5,11.5,0,0,0-6.59-1.88c-4.13,0-6,2.1-6,5,0,6.8,16.13,4,16.13,15.56,0,7.75-6.59,10.16-12.24,10.16a20.61,20.61,0,0,1-10.29-3.17Z"/></g></g></svg>
